# xmcd CD database file
# Copyright (C) 1993-1999 CDDB, Inc.
#
# Track frame offsets:
#	150
#	11322
#	23687
#	34224
#	46044
#	58213
#	68632
#	78738
#	91895
#	104713
#	117519
#	130139
#
# Disc length: 1900
#
# Revision: 1
# Processed by: cddbd v1.5.1PL2 Copyright (c) Steve Scherf et al.
# Submitted via: CoolCD_Studio 1.4
#
DISCID=9a076a0c
DTITLE=Eddy Arnold - The Best Of Eddy Arnold
DYEAR=1990
DGENRE=
TTITLE0=Bouquet Of Roses
TTITLE1=Make The World Go Away
TTITLE2=Anytime
TTITLE3=I'll Hold You In My Heart (Til I Can Hold You In My Arms)
TTITLE4=I Want To Go With You
TTITLE5=The Last Word In Lonesome Is Me
TTITLE6=What's He Doing In My World
TTITLE7=Just A Little Lovin' (Will Go A Long Way)
TTITLE8=I Really Don't Want To Know
TTITLE9=You Don't Know Me
TTITLE10=That's How Much I Love You
TTITLE11=Cattle Call
EXTD=
EXTT0=
EXTT1=
EXTT2=
EXTT3=
EXTT4=
EXTT5=
EXTT6=
EXTT7=
EXTT8=
EXTT9=
EXTT10=
EXTT11=
PLAYORDER=
